<svg xmlns="http://www.w3.org/2000/svg" viewBox="0 0 400 400" width="400" height="400" xmlns:c2pa="http://c2pa.org/manifest"><metadata><c2pa:manifest>AAAWgmp1bWIAAAAeanVtZGMycGEAEQAQgAAAqgA4m3EDYzJwYQAAABZcanVtYgAAAEdqdW1kYzJtYQARABCAAACqADibcQN1cm46YzJwYTphMzU3YmM1MS1iMWZmLTQ3MjYtYTk0ZC0wY2ZhYjE0NTJhNWIAAAADl2p1bWIAAAApanVtZGMyYXMAEQAQgAAAqgA4m3EDYzJwYS5hc3NlcnRpb25zAAAAALxqdW1iAAAARGp1bWRjYm9yABEAEIAAAKoAOJtxE2MycGEuaW5ncmVkaWVudC52MwAAAAAYYzJzaJ437fzh4Y8XBNGyww4kPDMAAABwY2JvcqNpZGM6Zm9ybWF0bWltYWdlL3N2Zyt4bWxqaW5zdGFuY2VJRHgseG1wOmlpZDpmNjJiZmY2ZC05NTg2LTRiN2ItOTQ4ZC1mZTQ3ZGUxMTc2NzJscmVsYXRpb25zaGlwaHBhcmVudE9mAAAB4mp1bWIAAABBanVtZGNib3IAEQAQgAAAqgA4m3ETYzJwYS5hY3Rpb25zLnYyAAAAABhjMnNoJnz4K/llitiWGAtkzdSHdAAAAZljYm9yomdhY3Rpb25zgqJmYWN0aW9ua2MycGEub3BlbmVkanBhcmFtZXRlcnOha2luZ3JlZGllbnRzgaJjdXJseC1zZWxmI2p1bWJmPWMycGEuYXNzZXJ0aW9ucy9jMnBhLmluZ3JlZGllbnQudjNkaGFzaFggS1uxNdnv65tAbv56ZuZb3j1pKIw9ZNL4WyovlW2GzSCkZmFjdGlvbngdY29tLmFudGhyb3BpYy5jbGF1ZGUucHJvdmlkZWRqcGFyYW1ldGVyc6F4H2NvbS5hbnRocm9waWMub3JpZ2luLWNvbmZpZGVuY2VndW5rbm93bmtkZXNjcmlwdGlvbnhmQ2xhdWRlIHByb3ZpZGVkIHRoaXMgZmlsZSBhdCB0aGUgcmVxdWVzdCBvZiBhIHVzZXIgYW5kIG1heSBoYXZlIGNyZWF0ZWQgb3IgbW9kaWZpZWQgdGhlIGZpbGUgY29udGVudHMubXNvZnR3YXJlQWdlbnShZG5hbWVmQ2xhdWRlcmFsbEFjdGlvbnNJbmNsdWRlZPUAAADIanVtYgAAAEBqdW1kY2JvcgARABCAAACqADibcRNjMnBhLmhhc2guZGF0YQAAAAAYYzJzaPOH1Q6fOyT+hDAxlfUL3YoAAACAY2JvcqVjYWxnZnNoYTI1NmNwYWRNAAAAAAAAAAAAAAAAAGRoYXNoWCAREyKn34Ft5KBbHbTRyL/MMGKZwulicRcnZToAaYrmkWRuYW1lbmp1bWJmIG1hbmlmZXN0amV4Y2x1c2lvbnOBomVzdGFydBiWZmxlbmd0aBkeBAAAAj5qdW1iAAAAJ2p1bWRjMmNsABEAEIAAAKoAOJtxA2MycGEuY2xhaW0udjIAAAACD2Nib3KlY2FsZ2ZzaGEyNTZpc2lnbmF0dXJleE1zZWxmI2p1bWJmPS9jMnBhL3VybjpjMnBhOmEzNTdiYzUxLWIxZmYtNDcyNi1hOTRkLTBjZmFiMTQ1MmE1Yi9jMnBhLnNpZ25hdHVyZWppbnN0YW5jZUlEeCx4bXA6aWlkOmM3MjA0YTlkLTk5YzQtNDJkZi1iMGZjLTJmYjBhMmI2MzNiYXJjcmVhdGVkX2Fzc2VydGlvbnODomN1cmx4LXNlbGYjanVtYmY9YzJwYS5hc3NlcnRpb25zL2MycGEuaW5ncmVkaWVudC52M2RoYXNoWCBLW7E12e/rm0Bu/npm5lvePWkojD1k0vhbKi+VbYbNIKJjdXJseCpzZWxmI2p1bWJmPWMycGEuYXNzZXJ0aW9ucy9jMnBhLmFjdGlvbnMudjJkaGFzaFgg6Pt9qIshnWCf2KQpy3mgh/MPgr35fsNL5XRHpK8YyH2iY3VybHgpc2VsZiNqdW1iZj1jMnBhLmFzc2VydGlvbnMvYzJwYS5oYXNoLmRhdGFkaGFzaFggaICHOJ6I7FjgC04UddxI/QBt36WQ2qlx4dEO2GHjMl50Y2xhaW1fZ2VuZXJhdG9yX2luZm+jZG5hbWVvQW50aHJvcGljIEZpbGVzZ3ZlcnNpb25lMS4wLjBrc3BlY1ZlcnNpb25lMi40LjAAABA4anVtYgAAAChqdW1kYzJjcwARABCAAACqADibcQNjMnBhLnNpZ25hdHVyZQAAABAIY2JvctKEWQISogEmGCFZAgowggIGMIIBjaADAgECAhRA5aAK7sI50L64g/oGQgU9Z1UTADAKBggqhkjOPQQDAzBJMRcwFQYDVQQKEw5BbnRocm9waWMsIFBCQzEuMCwGA1UEAxMlQW50aHJvcGljIENvbnRlbnQgQ3JlZGVudGlhbHMgUm9vdCBDQTAeFw0yNjA4MDcxODQzNTZaFw0yODA4MDYxOTQzNTZaMEQxFzAVBgNVBAoTDkFudGhyb3BpYywgUEJDMSkwJwYDVQQDEyBBbnRocm9waWMgQ2xhdWRlIENvbnRlbnQgU2lnbmluZzBZMBMGByqGSM49AgEGCCqGSM49AwEHA0IABJh6CmvLUBgFFNU0vUKlOVtE6djd17L5SuwX0LemFisBM3dkd/3cyjxFA3Qo5S46fX0/ihY0VZ7mfb9KF703t5OjWDBWMA4GA1UdDwEB/wQEAwIHgDAVBgNVHSUEDjAMBgorBgEEAYPoXgIBMAwGA1UdEwEB/wQCMAAwHwYDVR0jBBgwFoAUzlHiBIFOZFsj+OPEz5o+nMHXXMIwCgYIKoZIzj0EAwMDZwAwZAIwMXMdFJ4BetLLVY7ORuE9noqbbAZOZn/aArXyTwFAZfKrPzxF2vPoJNf1+UCdg1XGAjBwX1zd9WGqYkqmL5SFqw1QySjr1zJfpJM9+1rdDwSPLMOPOjKuiXjoU/pUUeG9RwmhY3BhZFkNngAAAAAAAAAAAAAAAAAAAAAAAAAAAAAAAAAAAAAAAAAAAAAAAAAAAAAAAAAAAAAAAAAAAAAAAAAAAAAAAAAAAAAAAAAAAAAAAAAAAAAAAAAAAAAAAAAAAAAAAAAAAAAAAAAAAAAAAAAAAAAAAAAAAAAAAAAAAAAAAAAAAAAAAAAAAAAAAAAAAAAAAAAAAAAAAAAAAAAAAAAAAAAAAAAAAAAAAAAAAAAAAAAAAAAAAAAAAAAAAAAAAAAAAAAAAAAAAAAAAAAAAAAAAAAAAAAAAAAAAAAAAAAAAAAAAAAAAAAAAAAAAAAAAAAAAAAAAAAAAAAAAAAAAAAAAAAAAAAAAAAAAAAAAAAAAAAAAAAAAAAAAAAAAAAAAAAAAAAAAAAAAAAAAAAAAAAAAAAAAAAAAAAAAAAAAAAAAAAAAAAAAAAAAAAAAAAAAAAAAAAAAAAAAAAAAAAAAAAAAAAAAAAAAAAAAAAAAAAAAAAAAAAAAAAAAAAAAAAAAAAAAAAAAAAAAAAAAAAAAAAAAAAAAAAAAAAAAAAAAAAAAAAAAAAAAAAAAAAAAAAAAAAAAAAAAAAAAAAAAAAAAAAAAAAAAAAAAAAAAAAAAAAAAAAAAAAAAAAAAAAAAAAAAAAAAAAAAAAAAAAAAAAAAAAAAAAAAAAAAAAAAAAAAAAAAAAAAAAAAAAAAAAAAAAAAAAAAAAAAAAAAAAAAAAAAAAAAAAAAAAAAAAAAAAAAAAAAAAAAAAAAAAAAAAAAAAAAAAAAAAAAAAAAAAAAAAAAAAAAAAAAAAAAAAAAAAAAAAAAAAAAAAAAAAAAAAAAAAAAAAAAAAAAAAAAAAAAAAAAAAAAAAAAAAAAAAAAAAAAAAAAAAAAAAAAAAAAAAAAAAAAAAAAAAAAAAAAAAAAAAAAAAAAAAAAAAAAAAAAAAAAAAAAAAAAAAAAAAAAAAAAAAAAAAAAAAAAAAAAAAAAAAAAAAAAAAAAAAAAAAAAAAAAAAAAAAAAAAAAAAAAAAAAAAAAAAAAAAAAAAAAAAAAAAAAAAAAAAAAAAAAAAAAAAAAAAAAAAAAAAAAAAAAAAAAAAAAAAAAAAAAAAAAAAAAAAAAAAAAAAAAAAAAAAAAAAAAAAAAAAAAAAAAAAAAAAAAAAAAAAAAAAAAAAAAAAAAAAAAAAAAAAAAAAAAAAAAAAAAAAAAAAAAAAAAAAAAAAAAAAAAAAAAAAAAAAAAAAAAAAAAAAAAAAAAAAAAAAAAAAAAAAAAAAAAAAAAAAAAAAAAAAAAAAAAAAAAAAAAAAAAAAAAAAAAAAAAAAAAAAAAAAAAAAAAAAAAAAAAAAAAAAAAAAAAAAAAAAAAAAAAAAAAAAAAAAAAAAAAAAAAAAAAAAAAAAAAAAAAAAAAAAAAAAAAAAAAAAAAAAAAAAAAAAAAAAAAAAAAAAAAAAAAAAAAAAAAAAAAAAAAAAAAAAAAAAAAAAAAAAAAAAAAAAAAAAAAAAAAAAAAAAAAAAAAAAAAAAAAAAAAAAAAAAAAAAAAAAAAAAAAAAAAAAAAAAAAAAAAAAAAAAAAAAAAAAAAAAAAAAAAAAAAAAAAAAAAAAAAAAAAAAAAAAAAAAAAAAAAAAAAAAAAAAAAAAAAAAAAAAAAAAAAAAAAAAAAAAAAAAAAAAAAAAAAAAAAAAAAAAAAAAAAAAAAAAAAAAAAAAAAAAAAAAAAAAAAAAAAAAAAAAAAAAAAAAAAAAAAAAAAAAAAAAAAAAAAAAAAAAAAAAAAAAAAAAAAAAAAAAAAAAAAAAAAAAAAAAAAAAAAAAAAAAAAAAAAAAAAAAAAAAAAAAAAAAAAAAAAAAAAAAAAAAAAAAAAAAAAAAAAAAAAAAAAAAAAAAAAAAAAAAAAAAAAAAAAAAAAAAAAAAAAAAAAAAAAAAAAAAAAAAAAAAAAAAAAAAAAAAAAAAAAAAAAAAAAAAAAAAAAAAAAAAAAAAAAAAAAAAAAAAAAAAAAAAAAAAAAAAAAAAAAAAAAAAAAAAAAAAAAAAAAAAAAAAAAAAAAAAAAAAAAAAAAAAAAAAAAAAAAAAAAAAAAAAAAAAAAAAAAAAAAAAAAAAAAAAAAAAAAAAAAAAAAAAAAAAAAAAAAAAAAAAAAAAAAAAAAAAAAAAAAAAAAAAAAAAAAAAAAAAAAAAAAAAAAAAAAAAAAAAAAAAAAAAAAAAAAAAAAAAAAAAAAAAAAAAAAAAAAAAAAAAAAAAAAAAAAAAAAAAAAAAAAAAAAAAAAAAAAAAAAAAAAAAAAAAAAAAAAAAAAAAAAAAAAAAAAAAAAAAAAAAAAAAAAAAAAAAAAAAAAAAAAAAAAAAAAAAAAAAAAAAAAAAAAAAAAAAAAAAAAAAAAAAAAAAAAAAAAAAAAAAAAAAAAAAAAAAAAAAAAAAAAAAAAAAAAAAAAAAAAAAAAAAAAAAAAAAAAAAAAAAAAAAAAAAAAAAAAAAAAAAAAAAAAAAAAAAAAAAAAAAAAAAAAAAAAAAAAAAAAAAAAAAAAAAAAAAAAAAAAAAAAAAAAAAAAAAAAAAAAAAAAAAAAAAAAAAAAAAAAAAAAAAAAAAAAAAAAAAAAAAAAAAAAAAAAAAAAAAAAAAAAAAAAAAAAAAAAAAAAAAAAAAAAAAAAAAAAAAAAAAAAAAAAAAAAAAAAAAAAAAAAAAAAAAAAAAAAAAAAAAAAAAAAAAAAAAAAAAAAAAAAAAAAAAAAAAAAAAAAAAAAAAAAAAAAAAAAAAAAAAAAAAAAAAAAAAAAAAAAAAAAAAAAAAAAAAAAAAAAAAAAAAAAAAAAAAAAAAAAAAAAAAAAAAAAAAAAAAAAAAAAAAAAAAAAAAAAAAAAAAAAAAAAAAAAAAAAAAAAAAAAAAAAAAAAAAAAAAAAAAAAAAAAAAAAAAAAAAAAAAAAAAAAAAAAAAAAAAAAAAAAAAAAAAAAAAAAAAAAAAAAAAAAAAAAAAAAAAAAAAAAAAAAAAAAAAAAAAAAAAAAAAAAAAAAAAAAAAAAAAAAAAAAAAAAAAAAAAAAAAAAAAAAAAAAAAAAAAAAAAAAAAAAAAAAAAAAAAAAAAAAAAAAAAAAAAAAAAAAAAAAAAAAAAAAAAAAAAAAAAAAAAAAAAAAAAAAAAAAAAAAAAAAAAAAAAAAAAAAAAAAAAAAAAAAAAAAAAAAAAAAAAAAAAAAAAAAAAAAAAAAAAAAAAAAAAAAAAAAAAAAAAAAAAAAAAAAAAAAAAAAAAAAAAAAAAAAAAAAAAAAAAAAAAAAAAAAAAAAAAAAAAAAAAAAAAAAAAAAAAAAAAAAAAAAAAAAAAAAAAAAAAAAAAAAAAAAAAAAAAAAAAAAAAAAAAAAAAAAAAAAAAAAAAAAAAAAAAAAAAAAAAAAAAAAAAAAAAAAAAAAAAAAAAAAAAAAAAAAAAAAAAAAAAAAAAAAAAAAAAAAAAAAAAAAAAAAAAAAAAAAAAAAAAAAAAAAAAAAAAAAAAAAAAAAAAAAAAAAAAAAAAAAAAAAAAAAAAAAAAAAAAAAAAAAAAAAAAAAAAAAAAAAAAAAAAAAAAAAAAAAAAAAAAAAAAAAAAAAAAAAAAAAAAAAAAAAAAAAAAAAAAAAAAAAAAAAAAAAAAAAAAAAAAAAAAAAAAAAAAAAAAAAAAAAAAAAAAAAAAAAAAAAAAAAAAAAAAAAAAAAAAAAAAAAAAAAAAAAAAAAAAAAAAAAAAAAAAAAAAAAAAAAAAAAAAAAAAAAAAAAAAAAAAAAAAAAAAAAAAAAAAAAAAAAAAAAAAAAAAAAAAAAAAAAAAAAAAAAAAAAAAAAAAAAAAAAAAAAAAAAAAAAAAAAAAAAAAAAAAAAAAAAAAAAAAAAAAAAAAAAAAAAAAAAAAAAAAAAAAAAAAAAAAAAAAAAAAAAAAAAAAAAAAAAAAAAAAAAAAAAAAAAAAAAAAAAAAAAAAAAAAAAAAAAAAAAAAAAAAAAAAAAAAAAAAAAAAAAAAAAAAAAAAAAAAAAAAAAAAAAAAAAAAAAAAAAAAAAAAAAAAAAAAAAAAAAAAAAAAAAAAAAAAAAAAAAAAAAAAAAAAAAAAAAAAAAAAAAAAAAAAAAAAAAAAAAAAAAAAAAAAAAAAAAAAAAAAAAAAAAAAAAAAAAAAAAAAAAAAAAAAAAAAAAAAAAAAAAAAAAAAAAAAAAAAAAAAAAAAAAAAAAAAAAAAAAAAAAAAAAAAAAAAAAAAAAAAAAAAAAAAAAAAAAAAAAAAAAAAAAAAAAAAAAAAAAAAAAAAAAAAAAAAAAAAAAAAAAAAAAAAAAAAAAAAAAAAAAAAAAAAAAAAAAAAAAAAAAAAAAAAAAAAAAAAAAAAAAAAAAAAAAAAAAAAAAAAAAAAAAAAAAAAAAAAAAAAAAAAAAAAAAAAAAAAAAAAAAAAAAAAAAAAAAAAAAAAAAAAAAAAAAAAAAAAAAAAAAAAAAAAAAAAAAAAAAAAAAAAAAAAAAAAAAAAAAAAAAAAAAAAAAAAAAAAAAAAAAAAAAAAAAAAAAAAAAAAAAAAAAAAAAAAAAAAAAAAAAAAAAAAAAAAAAAAAAAAAAAAAAAAAAAAAAAAAAAAAAAAAAAAAAAAAAAAAAAAAAAAAAAAAAAAAAAAAAAAAAAAAAAAAAAAAAAAAAAAAAAAAAAAAAAAAAAAAAAAAAAAAAAAAAAAAAAAAAAAAAPZYQGbyay6gSq3tTJwIw9tDyUQ3/ZwJ+kw+FtIl7rbCs5SeWbmdNnU1bAlz1uCR/bNb9/Ci3GIbIZy086AZVy6trVM=</c2pa:manifest></metadata><defs>
<linearGradient id="g" x1="0" y1="0" x2="1" y2="1"><stop offset="0" stop-color="#E4CB94"/><stop offset="0.55" stop-color="#CDAF76"/><stop offset="1" stop-color="#B08E57"/></linearGradient>
<mask id="k" maskUnits="userSpaceOnUse" x="0" y="0" width="400" height="400"><rect width="400" height="400" fill="#fff"/><polygon points="240.00,187.00 364.00,200.00 240.00,213.00" fill="#000" stroke="#000" stroke-width="9" stroke-linejoin="round"/><polygon points="187.00,160.00 200.00,36.00 213.00,160.00" fill="#000" stroke="#000" stroke-width="9" stroke-linejoin="round"/><polygon points="160.00,213.00 36.00,200.00 160.00,187.00" fill="#000" stroke="#000" stroke-width="9" stroke-linejoin="round"/><polygon points="213.00,240.00 200.00,364.00 187.00,240.00" fill="#000" stroke="#000" stroke-width="9" stroke-linejoin="round"/><polygon points="220.15,163.58 309.60,90.40 236.42,179.85" fill="#000" stroke="#000" stroke-width="9" stroke-linejoin="round"/><polygon points="163.58,179.85 90.40,90.40 179.85,163.58" fill="#000" stroke="#000" stroke-width="9" stroke-linejoin="round"/><polygon points="179.85,236.42 90.40,309.60 163.58,220.15" fill="#000" stroke="#000" stroke-width="9" stroke-linejoin="round"/><polygon points="236.42,220.15 309.60,309.60 220.15,236.42" fill="#000" stroke="#000" stroke-width="9" stroke-linejoin="round"/></mask>
</defs><g mask="url(#k)"><path d="M360.85,231.99 L362.85,219.42 L385.63,211.68 L385.63,188.32 L362.85,180.58 L360.85,168.00 L357.88,155.62 L375.97,139.75 L367.03,118.17 L343.02,119.74 L336.36,108.88 L328.88,98.58 L339.52,77.00 L323.00,60.48 L301.42,71.12 L291.11,63.64 L280.26,56.98 L281.83,32.97 L260.25,24.03 L244.38,42.12 L231.99,39.15 L219.42,37.15 L211.68,14.37 L188.32,14.37 L180.58,37.15 L168.00,39.15 L155.62,42.12 L139.75,24.03 L118.17,32.97 L119.74,56.98 L108.88,63.64 L98.58,71.12 L77.00,60.48 L60.48,77.00 L71.12,98.58 L63.64,108.89 L56.98,119.74 L32.97,118.17 L24.03,139.75 L42.12,155.62 L39.15,168.01 L37.15,180.58 L14.37,188.32 L14.37,211.68 L37.15,219.42 L39.15,232.00 L42.12,244.38 L24.03,260.25 L32.97,281.83 L56.98,280.26 L63.64,291.12 L71.12,301.42 L60.48,323.00 L77.00,339.52 L98.58,328.88 L108.89,336.36 L119.74,343.02 L118.17,367.03 L139.75,375.97 L155.62,357.88 L168.01,360.85 L180.58,362.85 L188.32,385.63 L211.68,385.63 L219.42,362.85 L232.00,360.85 L244.38,357.88 L260.25,375.97 L281.83,367.03 L280.26,343.02 L291.12,336.36 L301.42,328.88 L323.00,339.52 L339.52,323.00 L328.88,301.42 L336.36,291.11 L343.02,280.26 L367.03,281.83 L375.97,260.25 L357.88,244.38 Z M344,200 A144,144 0 1,0 56,200 A144,144 0 1,0 344,200 Z" fill="url(#g)" fill-rule="evenodd"/><circle cx="200" cy="200" r="121" fill="none" stroke="url(#g)" stroke-width="8"/></g><polygon points="236.96,184.69 233.70,176.84 313.64,152.93" fill="#E4CC98"/><polygon points="236.96,184.69 240.21,192.55 313.64,152.93" fill="#B8975E"/><polygon points="215.31,163.04 207.45,159.79 247.07,86.36" fill="#E4CC98"/><polygon points="215.31,163.04 223.16,166.30 247.07,86.36" fill="#B8975E"/><polygon points="184.69,163.04 176.84,166.30 152.93,86.36" fill="#E4CC98"/><polygon points="184.69,163.04 192.55,159.79 152.93,86.36" fill="#B8975E"/><polygon points="163.04,184.69 159.79,192.55 86.36,152.93" fill="#E4CC98"/><polygon points="163.04,184.69 166.30,176.84 86.36,152.93" fill="#B8975E"/><polygon points="163.04,215.31 166.30,223.16 86.36,247.07" fill="#E4CC98"/><polygon points="163.04,215.31 159.79,207.45 86.36,247.07" fill="#B8975E"/><polygon points="184.69,236.96 192.55,240.21 152.93,313.64" fill="#E4CC98"/><polygon points="184.69,236.96 176.84,233.70 152.93,313.64" fill="#B8975E"/><polygon points="215.31,236.96 223.16,233.70 247.07,313.64" fill="#E4CC98"/><polygon points="215.31,236.96 207.45,240.21 247.07,313.64" fill="#B8975E"/><polygon points="236.96,215.31 240.21,207.45 313.64,247.07" fill="#E4CC98"/><polygon points="236.96,215.31 233.70,223.16 313.64,247.07" fill="#B8975E"/><polygon points="240.00,200.00 240.00,187.00 312.00,194.55 312.00,200.00" fill="#EBD6A6"/><polygon points="240.00,200.00 240.00,213.00 312.00,205.45 312.00,200.00" fill="#BC9B62"/><polygon points="312.00,200.00 312.00,194.55 364.00,200.00" fill="#62B4E6"/><polygon points="312.00,200.00 312.00,205.45 364.00,200.00" fill="#2C74B5"/><polygon points="200.00,160.00 187.00,160.00 194.55,88.00 200.00,88.00" fill="#EBD6A6"/><polygon points="200.00,160.00 213.00,160.00 205.45,88.00 200.00,88.00" fill="#BC9B62"/><polygon points="200.00,88.00 194.55,88.00 200.00,36.00" fill="#62B4E6"/><polygon points="200.00,88.00 205.45,88.00 200.00,36.00" fill="#2C74B5"/><polygon points="160.00,200.00 160.00,213.00 88.00,205.45 88.00,200.00" fill="#EBD6A6"/><polygon points="160.00,200.00 160.00,187.00 88.00,194.55 88.00,200.00" fill="#BC9B62"/><polygon points="88.00,200.00 88.00,205.45 36.00,200.00" fill="#62B4E6"/><polygon points="88.00,200.00 88.00,194.55 36.00,200.00" fill="#2C74B5"/><polygon points="200.00,240.00 213.00,240.00 205.45,312.00 200.00,312.00" fill="#EBD6A6"/><polygon points="200.00,240.00 187.00,240.00 194.55,312.00 200.00,312.00" fill="#BC9B62"/><polygon points="200.00,312.00 205.45,312.00 200.00,364.00" fill="#62B4E6"/><polygon points="200.00,312.00 194.55,312.00 200.00,364.00" fill="#2C74B5"/><polygon points="228.28,171.72 220.15,163.58 273.04,120.31 276.37,123.63" fill="#EBD6A6"/><polygon points="228.28,171.72 236.42,179.85 279.69,126.96 276.37,123.63" fill="#BC9B62"/><polygon points="276.37,123.63 273.04,120.31 309.60,90.40" fill="#62B4E6"/><polygon points="276.37,123.63 279.69,126.96 309.60,90.40" fill="#2C74B5"/><polygon points="171.72,171.72 163.58,179.85 120.31,126.96 123.63,123.63" fill="#EBD6A6"/><polygon points="171.72,171.72 179.85,163.58 126.96,120.31 123.63,123.63" fill="#BC9B62"/><polygon points="123.63,123.63 120.31,126.96 90.40,90.40" fill="#62B4E6"/><polygon points="123.63,123.63 126.96,120.31 90.40,90.40" fill="#2C74B5"/><polygon points="171.72,228.28 179.85,236.42 126.96,279.69 123.63,276.37" fill="#EBD6A6"/><polygon points="171.72,228.28 163.58,220.15 120.31,273.04 123.63,276.37" fill="#BC9B62"/><polygon points="123.63,276.37 126.96,279.69 90.40,309.60" fill="#62B4E6"/><polygon points="123.63,276.37 120.31,273.04 90.40,309.60" fill="#2C74B5"/><polygon points="228.28,228.28 236.42,220.15 279.69,273.04 276.37,276.37" fill="#EBD6A6"/><polygon points="228.28,228.28 220.15,236.42 273.04,279.69 276.37,276.37" fill="#BC9B62"/><polygon points="276.37,276.37 279.69,273.04 309.60,309.60" fill="#62B4E6"/><polygon points="276.37,276.37 273.04,279.69 309.60,309.60" fill="#2C74B5"/><circle cx="200" cy="200" r="46.5" fill="none" stroke="url(#g)" stroke-width="17"/></svg>